<?xml version="1.0" encoding="UTF-8" standalone="no"?>
<!-- Created with Inkscape (http://www.inkscape.org/) -->

<svg
   width="161.92195"
   height="23.156271"
   viewBox="0 0 42.841849 6.1267632"
   version="1.1"
   id="svg1"
   inkscape:version="1.4.2 (f4327f4, 2025-05-13)"
   sodipodi:docname="logo.svg"
   xmlns:inkscape="http://www.inkscape.org/namespaces/inkscape"
   xmlns:sodipodi="http://sodipodi.sourceforge.net/DTD/sodipodi-0.dtd"
   xmlns="http://www.w3.org/2000/svg"
   xmlns:svg="http://www.w3.org/2000/svg">
  <sodipodi:namedview
     id="namedview1"
     pagecolor="#ffffff"
     bordercolor="#000000"
     borderopacity="0.25"
     inkscape:showpageshadow="2"
     inkscape:pageopacity="0.0"
     inkscape:pagecheckerboard="0"
     inkscape:deskcolor="#d1d1d1"
     inkscape:document-units="mm"
     inkscape:zoom="2.8756734"
     inkscape:cx="78.242543"
     inkscape:cy="17.561104"
     inkscape:window-width="1920"
     inkscape:window-height="1009"
     inkscape:window-x="-8"
     inkscape:window-y="-8"
     inkscape:window-maximized="1"
     inkscape:current-layer="layer1" />
  <defs
     id="defs1" />
  <g
     inkscape:label="Layer 1"
     inkscape:groupmode="layer"
     id="layer1"
     transform="translate(-10.88112,-5.4952938)">
    <g
       id="text1"
       style="font-weight:bold;font-size:8.46667px;font-family:Sans;-inkscape-font-specification:'Sans, Bold';text-align:center;text-anchor:middle;opacity:0.79;fill:#1e4673;stroke-width:11.1599;stroke-linecap:round;stroke-linejoin:bevel"
       aria-label="HANDS ON"
       transform="translate(0.55204461,0.09200743)">
      <path
         style="font-weight:600;font-family:'Segoe UI';-inkscape-font-specification:'Segoe UI, Semi-Bold'"
         d="M 15.091577,11.430828 H 14.103523 V 8.8594078 h -2.790528 v 2.5714202 h -0.98392 V 5.5025054 h 0.98392 v 2.4928721 h 2.790528 V 5.5025054 h 0.988054 z m 6.333466,0 H 20.346039 L 19.812738,9.9218757 h -2.331642 l -0.51263,1.5089523 h -1.07487 l 2.22002,-5.9283226 h 1.107943 z M 19.552288,9.1198571 18.729599,6.7551426 q -0.03721,-0.1157552 -0.07855,-0.3720704 h -0.01654 q -0.03721,0.2356446 -0.08268,0.3720704 L 17.737411,9.1198571 Z M 27.26655,11.430828 H 26.191679 L 23.35981,7.0734696 Q 23.252323,6.9081049 23.182043,6.7303379 h -0.02481 q 0.03307,0.1901694 0.03307,0.8144209 V 11.430828 H 22.239464 V 5.5025054 h 1.145151 l 2.736784,4.2540056 q 0.173633,0.264583 0.223243,0.363802 h 0.01654 Q 26.319837,9.8846686 26.319837,9.3224288 V 5.5025054 h 0.946713 z m 1.46761,0 V 5.5025054 h 1.711524 q 3.278354,0 3.278354,2.8897473 0,1.3725266 -0.909505,2.2076183 -0.909506,0.830957 -2.439129,0.830957 z m 0.979786,-5.0932311 v 4.2622741 h 0.785482 q 1.037663,0 1.612305,-0.570508 0.578776,-0.5705083 0.578776,-1.6123056 0,-2.0794605 -2.153874,-2.0794605 z m 4.820379,4.8575861 v -1.012858 q 0.136426,0.124023 0.322461,0.223242 0.19017,0.09922 0.40101,0.169499 0.21084,0.06615 0.42168,0.103353 0.21084,0.03721 0.388607,0.03721 0.620117,0 0.921907,-0.206706 0.305925,-0.206706 0.305925,-0.5994467 0,-0.2108399 -0.103353,-0.3638022 -0.09922,-0.1570964 -0.28112,-0.285254 Q 36.729541,9.1322595 36.481494,9.0165042 36.237581,8.8966148 35.956461,8.7684572 35.654671,8.6072267 35.394222,8.4418621 35.133772,8.2764974 34.939469,8.0780598 34.749299,7.8754881 34.637678,7.623307 34.530191,7.371126 34.530191,7.0321284 q 0,-0.4175457 0.186036,-0.7234703 0.190169,-0.3100587 0.496093,-0.5084963 0.310059,-0.2025717 0.7028,-0.2976564 0.392741,-0.099219 0.802019,-0.099219 0.930176,0 1.35599,0.21084 v 0.9715173 q -0.504362,-0.3638023 -1.298113,-0.3638023 -0.219108,0 -0.438216,0.041341 -0.214974,0.041341 -0.388607,0.1364258 -0.169499,0.095085 -0.276986,0.2439129 -0.107487,0.1488282 -0.107487,0.3596681 0,0.1984376 0.08268,0.3431317 0.08268,0.144694 0.239778,0.2645834 0.161231,0.1198894 0.388607,0.2356446 0.231511,0.1116212 0.533301,0.2439129 0.310059,0.1612305 0.582911,0.3389975 0.276986,0.177767 0.483691,0.3927411 0.21084,0.214974 0.33073,0.4795574 0.124023,0.2604494 0.124023,0.5953128 0,0.4506194 -0.181901,0.7606774 -0.181901,0.310059 -0.49196,0.504363 -0.305924,0.194303 -0.706934,0.281119 -0.401009,0.08682 -0.847494,0.08682 -0.148828,0 -0.367936,-0.0248 -0.214974,-0.02067 -0.44235,-0.06615 -0.227377,-0.04134 -0.429948,-0.103353 -0.202572,-0.06201 -0.326596,-0.14056 z"
         id="path1" />
      <path
         style="font-weight:600;font-family:'Segoe UI';-inkscape-font-specification:'Segoe UI, Semi-Bold';fill:#8b1e1e"
         d="m 44.187488,11.530047 q -1.281576,0 -2.054656,-0.830957 -0.768946,-0.8309578 -0.768946,-2.1621433 0,-1.4304042 0.785482,-2.2820321 0.785483,-0.851628 2.133204,-0.851628 1.248504,0 2.009181,0.8268233 0.764811,0.8268232 0.764811,2.1621428 0,1.4510748 -0.781348,2.2944343 -0.781348,0.84336 -2.087728,0.84336 z m 0.04547,-5.2627301 q -0.814421,0 -1.327051,0.6077151 -0.508497,0.6077151 -0.508497,1.599903 0,0.9880538 0.496094,1.591635 0.496094,0.603581 1.298113,0.603581 0.851628,0 1.343588,-0.574642 0.491959,-0.5746426 0.491959,-1.6081717 0,-1.0624678 -0.479557,-1.6412441 -0.475423,-0.5787763 -1.314649,-0.5787763 z m 8.93796,5.1635111 h -1.07487 L 49.264183,7.0734696 Q 49.156696,6.9081049 49.086416,6.7303379 h -0.02481 q 0.03307,0.1901694 0.03307,0.8144209 V 11.430828 H 48.143837 V 5.5025054 h 1.145151 l 2.736785,4.2540056 q 0.173632,0.264583 0.223242,0.363802 h 0.01654 Q 52.22421,9.8846686 52.22421,9.3224288 V 5.5025054 h 0.946713 z"
         id="path2" />
    </g>
  </g>
</svg>
